<?xml version="1.0" encoding="utf-8"?>
<!-- Generator: Adobe Illustrator 26.3.1, SVG Export Plug-In . SVG Version: 6.00 Build 0)  -->
<svg version="1.1" id="Layer_1" xmlns="http://www.w3.org/2000/svg" xmlns:xlink="http://www.w3.org/1999/xlink" x="0px" y="0px"
	 viewBox="0 0 200 200" style="enable-background:new 0 0 200 200;" xml:space="preserve">
<style type="text/css">
	.st0{fill:#636270;}
	.st1{fill:#EFEFEF;}
</style>
<rect id="Rectangle_67" class="st0" width="200" height="200"/>
<path id="bag" class="st1" d="M94.6,41.2c-8.4,0-15.2,6.8-15.3,15.2v9H63.7c-0.1,0-0.2,0-0.3,0c-1.7,0.2-3.1,1.5-3.2,3.3L53,151.4
	c-0.1,1,0.3,2,0.9,2.7c0.7,0.7,1.6,1.2,2.6,1.2h87.9c2,0,3.6-1.6,3.6-3.5c0-0.1,0-0.2,0-0.3l-7.2-82.8c-0.2-1.8-1.7-3.3-3.6-3.3
	h-15.7v-9c0-8.4-6.9-15.2-15.3-15.2H94.6z M94.6,48.3h11.7c4.4-0.1,8,3.5,8.1,7.9c0,0.1,0,0.1,0,0.2v9H86.5v-9c0-4.4,3.5-8,7.9-8.1
	C94.5,48.3,94.6,48.3,94.6,48.3L94.6,48.3z M66.9,72.5h12.4v10.6l0,0c0,2,1.6,3.6,3.6,3.6c2,0,3.6-1.6,3.6-3.6V72.5h27.9v10.6
	c0,2,1.6,3.6,3.6,3.6c2,0,3.6-1.6,3.6-3.6V72.5H134l6.5,75.6H60.4L66.9,72.5z"/>
</svg>
