<?xml version="1.0" encoding="utf-8"?>
<!-- Generator: Adobe Illustrator 26.3.1, SVG Export Plug-In . SVG Version: 6.00 Build 0)  -->
<svg version="1.1" id="Layer_1" xmlns="http://www.w3.org/2000/svg" xmlns:xlink="http://www.w3.org/1999/xlink" x="0px" y="0px"
	 viewBox="0 0 409.6 409.6" style="enable-background:new 0 0 409.6 409.6;" xml:space="preserve">
<style type="text/css">
	.st0{fill:#333333;}
</style>
<g>
	<path class="st0" d="M208,409.6c-5.3,0-10.7,0-16,0c-0.9-0.2-1.8-0.6-2.7-0.6c-24.7-1.8-48.4-7.6-70.6-18.4
		C55.4,359.7,16.8,309.8,3.2,240.7C1.7,233.2,1,225.5,0,217.9c0-8.5,0-17,0-25.6c0.2-1.2,0.5-2.3,0.7-3.5c1.4-9.2,2.2-18.5,4.1-27.6
		C23.7,70.9,106.1,2.8,198.6,0.7c39.7-0.9,77,8.1,111,28.8c53,32.4,85.5,79.2,96.9,140.3c1.4,7.4,2.1,15,3.1,22.5
		c0,8.3,0,16.5,0,24.8c-0.9,7-1.4,14-2.7,20.9c-13.2,71-52.6,122.2-117.9,153.4c-8.7,4.1-18,7.1-27.4,10.7c0-51,0-101.2,0-151.7
		c14.7,0,29.2,0,43.8,0c2.2-17.2,4.4-34,6.6-51.3c-17.3,0-33.8,0-50.4,0c-0.1-1-0.3-1.5-0.3-2c0-11.4-0.2-22.9,0.1-34.3
		c0.3-13.2,7.1-20.1,20.4-20.6c9.1-0.4,18.1-0.2,27.2-0.3c1.4,0,2.8,0,4.2,0c0-15.6,0-30.6,0-46.6c-16.1-0.2-31.9-1.2-47.7-0.4
		c-8.1,0.4-16.6,2.9-24.1,6.5c-21.5,10.2-31,28.9-32.6,51.6c-1,13.8-0.4,27.7-0.5,41.5c0,1.5,0,3.1,0,5.1c-15,0-29.3,0-43.7,0
		c0,17.2,0,33.9,0,51c14.6,0,28.9,0,43.7,0c0,1.9,0,3.3,0,4.7c0,50,0,100.1,0,150.1C208.4,406.7,208.1,408.1,208,409.6z"/>
</g>
</svg>
