<?xml version="1.0" encoding="utf-8"?>
<!-- Generator: Adobe Illustrator 26.3.1, SVG Export Plug-In . SVG Version: 6.00 Build 0)  -->
<svg version="1.1" id="Layer_1" xmlns="http://www.w3.org/2000/svg" xmlns:xlink="http://www.w3.org/1999/xlink" x="0px" y="0px"
	 viewBox="0 0 409.6 409.6" style="enable-background:new 0 0 409.6 409.6;" xml:space="preserve">
<style type="text/css">
	.st0{fill:#333333;}
</style>
<g>
	<path class="st0" d="M310.6,409.6c-70.3,0-140.5,0-210.8,0c-1-0.2-2-0.6-3.1-0.7c-53.5-5.7-95.5-51.4-95.8-105.2
		c-0.4-65.5-0.4-131,0-196.4C1.2,48.8,48.9,1.1,107.3,0.8c65.2-0.3,130.4-0.3,195.6,0c46,0.2,86.7,30,101,73.8
		c2.7,8.1,3.8,16.8,5.7,25.2c0,70.3,0,140.6,0,210.8c-0.2,1-0.6,2-0.7,3.1c-6.5,45-31.2,75.2-73.9,90.5
		C327.2,406.9,318.7,407.8,310.6,409.6z M337.7,205.3c0-20,0-39.9,0-59.9c-0.1-41.1-31.7-72.7-72.9-72.8c-39.8-0.1-79.6-0.1-119.4,0
		c-41.1,0.1-72.7,31.8-72.8,72.9c0,39.8-0.1,79.6,0,119.4c0.1,41.1,31.7,72.8,72.9,72.8c39.8,0.1,79.6,0.1,119.4,0
		c41.1-0.1,72.7-31.7,72.8-72.9C337.8,244.9,337.7,225.1,337.7,205.3z"/>
	<path class="st0" d="M313.8,205.1c0,19.8,0,39.6,0,59.5c0,28.2-21,49.2-49.2,49.2c-39.6,0-79.3,0-118.9,0c-28.1,0-49-21-49.1-49.3
		c0-39.5,0-79,0-118.5c0-28.5,20.9-49.4,49.4-49.4c39.5,0,79,0,118.5,0c28.4,0,49.2,20.9,49.3,49.5
		C313.8,165.7,313.8,185.4,313.8,205.1z M205.2,265c33,0,59.9-26.9,59.9-59.9s-26.9-59.9-59.9-59.9s-59.9,26.9-59.9,59.9
		C145.3,238.1,172.2,265,205.2,265z M273.8,148.4c6.5,0,11.9-5.4,12-11.8c0.1-6.5-5.2-12-11.7-12.1c-6.6-0.1-12.2,5.4-12.2,12
		C261.9,143,267.3,148.4,273.8,148.4z"/>
	<path class="st0" d="M205.2,169.2c19.9,0,36,16.2,35.9,36.1C241,225,224.9,241,205.2,241c-19.9,0-36-16.2-35.9-36.1
		C169.4,185.3,185.5,169.2,205.2,169.2z"/>
</g>
</svg>
