<?xml version="1.0" encoding="utf-8"?>
<!-- Generator: Adobe Illustrator 26.3.1, SVG Export Plug-In . SVG Version: 6.00 Build 0)  -->
<svg version="1.1" id="Layer_1" xmlns="http://www.w3.org/2000/svg" xmlns:xlink="http://www.w3.org/1999/xlink" x="0px" y="0px"
	 viewBox="0 0 409.6 409.6" style="enable-background:new 0 0 409.6 409.6;" xml:space="preserve">
<style type="text/css">
	.st0{fill:#333333;}
</style>
<g>
	<path class="st0" d="M192,0c8.5,0,17.1,0,25.6,0c1,0.2,2,0.6,3.1,0.7c31.9,2.4,61.7,11.5,88.9,28.2c52.9,32.5,85.4,79.2,96.8,140.3
		c1.4,7.4,2.1,15,3.1,22.4c0,8.5,0,17,0,25.6c-0.6,4.9-1.1,9.7-1.8,14.6c-8.1,54.7-33.6,99.7-77.2,133.7
		c-45,35.1-96.5,48.6-153.1,41.5c-38.1-4.8-72.3-19.7-102-44.1c-39-32.1-63.3-73-72.3-122.8C1.8,232.5,1,224.8,0,217.2
		c0-8.5,0-17,0-25.6c0.3-2.6,0.7-5.2,1-7.9c4.7-43.2,21.1-81.5,50-114.2C82.8,33.6,122.5,11.3,169.9,3C177.2,1.8,184.6,1,192,0z
		 M323,204.3c-0.7-19.3-0.7-38.9-2.4-58.3c-2.5-29.9-23.1-52.1-52.7-56.3c-14.8-2.1-30-2.4-45-2.4c-25.6,0-51.3-0.3-76.7,1.7
		c-26.2,2.1-45.1,16.1-53.8,41.6c-2.6,7.7-4.1,16.1-4.3,24.2c-0.7,27.4-0.8,54.8-0.8,82.2c0,8.5,0.6,17,1.4,25.5
		c2.9,30.2,23.2,52.4,53.2,56.8c14.7,2.1,29.7,2.3,44.6,2.3c25.4,0,51,0.1,76.3-1.6c32-2.2,55-25.6,57.7-57.6
		C322.3,243.1,322.3,223.8,323,204.3z"/>
	<path class="st0" d="M109.7,150.9c1.5-24.5,17.1-40.7,41.7-41.4c35.5-0.9,71.1-1,106.7,0c24.9,0.7,41.1,16.8,41.8,41.6
		c0.9,35.5,0.9,71,0,106.5c-0.7,24.7-16.9,40.3-41.8,41.7c-35.7,2-71.4,2-107.1-0.1c-15.5-0.9-28.3-7.3-35.9-21.6
		c-4.8-8.9-5.9-18.7-6-28.6C108.7,234.1,108.6,168.6,109.7,150.9z M265.1,204.2c-0.1-33.3-27-60-60.3-60.1
		c-33.5,0-60.5,27-60.4,60.4c0.1,33.3,27,60,60.3,60.1C238.2,264.7,265.3,237.6,265.1,204.2z M267.6,155.8c7.7,0,14-6.1,14.1-13.8
		c0.1-7.9-6.2-14.2-14.1-14.2s-14.1,6.3-14,14.2C253.6,149.7,259.8,155.8,267.6,155.8z"/>
	<path class="st0" d="M244,204.4c0,21.5-17.5,39.1-39.1,39.1c-21.7,0.1-39.4-17.6-39.3-39.3c0.1-21.5,17.7-39,39.3-38.9
		C226.4,165.3,244,182.9,244,204.4z"/>
</g>
</svg>
