<?xml version="1.0" encoding="utf-8"?>
<!-- Generator: Adobe Illustrator 26.3.1, SVG Export Plug-In . SVG Version: 6.00 Build 0)  -->
<svg version="1.1" id="Layer_1" xmlns="http://www.w3.org/2000/svg" xmlns:xlink="http://www.w3.org/1999/xlink" x="0px" y="0px"
	 viewBox="0 0 459.2 249.1" style="enable-background:new 0 0 459.2 249.1;" xml:space="preserve">
<style type="text/css">
	.st0{clip-path:url(#SVGID_00000084512536691959149170000003194347967004992144_);}
	.st1{fill:#EFB4AE;}
</style>
<g>
	<defs>
		<rect id="SVGID_1_" width="459.2" height="249.1"/>
	</defs>
	<clipPath id="SVGID_00000104677807963828901710000017857676804407557538_">
		<use xlink:href="#SVGID_1_"  style="overflow:visible;"/>
	</clipPath>
	<g id="Group_3" style="clip-path:url(#SVGID_00000104677807963828901710000017857676804407557538_);">
		<path id="Path_1" class="st1" d="M325.5,67.8c-32.4,14.9-59.3,36.7-82.1,63.9c-22.5,26.9-35.2,59.3-50.5,90.7
			c-9.9-24.3-10.3-48.9-5.4-73.8c5.6-28.4,19.4-51.7,43.8-70.3c0.9,4,1.6,6.5,2.1,9c0.4,2.4,0.7,4.8,1.2,9c2.1-2.9,3.3-4.4,4.2-6
			c17.7-29.5,41.8-51.7,73.8-65.1c9.7-4.1,9.7-4,12,6.7C367.1,14.4,410.6,1,459.2,0c-14.3,32.4-33.5,59.3-56.2,86.3
			c5.2-0.2,8.6-0.4,13-0.6c-1.7,15.6-7.8,30.4-17.6,42.6c-9.5,12-21,22.4-32,34c6-1.2,12.3-2.5,20.2-4.2c-1.8,4-2.8,7-4.4,9.8
			c-15.4,27.3-39.2,49-67.8,61.7c-20.9,9.4-42.1,18.3-65.3,19.5c-9,0.5-18.1-1.3-27.2-2.2c-4.6-0.5-6-3.1-5.2-7.7
			c5.5-29.7,15.4-57.9,30.8-83.9c19.5-33,45.1-61.9,75.5-85.1C323.9,69.4,324.7,68.6,325.5,67.8"/>
		<path id="Path_2" class="st1" d="M159.8,216.2c-15.9-40-42.2-70.5-79.4-91.6c1.1,1.2,2,2.5,3.2,3.6c29.1,29.1,48.9,63.1,55,104.3
			c1.2,7.9-0.1,10-8,10.9c-19.7,2.3-38-1.9-53.7-14C60,216.4,44,202.5,28,188.6c-6.3-5.5-5.8-7.3,0-13.5c2.1-2.4,4.5-4.6,7.1-6.4
			c4.7-2.9,4.5-5.6,1.4-9.9c-15.1-21-26.9-44.2-35-68.8c-2.8-8.3-2.4-9,6.2-9.9c38.1-4.3,73.1,4.3,104.8,25.9c2.8,1.9,5.6,3.9,9,6.4
			c1.5-4.1,2.6-7.6,4-11.1c1.6-3.7,3.8-4.9,7.2-1.6c29.2,29.1,41.6,74.4,28.9,114.6C161.6,214.6,161.1,214.9,159.8,216.2"/>
	</g>
</g>
</svg>
