<?xml version="1.0" encoding="utf-8"?>
<!-- Generator: Adobe Illustrator 26.3.1, SVG Export Plug-In . SVG Version: 6.00 Build 0)  -->
<svg version="1.1" id="Layer_1" xmlns="http://www.w3.org/2000/svg" xmlns:xlink="http://www.w3.org/1999/xlink" x="0px" y="0px"
	 viewBox="0 0 568.1 349.7" style="enable-background:new 0 0 568.1 349.7;" xml:space="preserve">
<style type="text/css">
	.st0{clip-path:url(#SVGID_00000054983473364512289800000013481466808310021023_);}
	.st1{fill:#636270;}
</style>
<g>
	<g>
		<defs>
			<rect id="SVGID_1_" x="54.5" width="459.2" height="249.1"/>
		</defs>
		<clipPath id="SVGID_00000108277277987576683830000006887318350888873908_">
			<use xlink:href="#SVGID_1_"  style="overflow:visible;"/>
		</clipPath>
		<g id="Group_3" style="clip-path:url(#SVGID_00000108277277987576683830000006887318350888873908_);">
			<path id="Path_1" class="st1" d="M379.9,67.8c-32.4,14.9-59.3,36.7-82.1,63.9c-22.5,26.9-35.2,59.3-50.5,90.7
				c-9.9-24.3-10.3-48.9-5.4-73.8c5.6-28.4,19.4-51.7,43.8-70.3c0.9,4,1.6,6.5,2.1,9c0.4,2.4,0.7,4.8,1.2,9c2.1-2.9,3.3-4.4,4.2-6
				C310.9,60.8,335,38.6,367,25.2c9.7-4.1,9.7-4,12,6.7C421.6,14.4,465.1,1,513.7,0c-14.3,32.4-33.5,59.3-56.2,86.3
				c5.2-0.2,8.6-0.4,13-0.6c-1.7,15.6-7.8,30.4-17.6,42.6c-9.5,12-21,22.4-32,34c6-1.2,12.3-2.5,20.2-4.2c-1.8,4-2.8,7-4.4,9.8
				c-15.4,27.3-39.2,49-67.8,61.7c-20.9,9.4-42.1,18.3-65.3,19.5c-9,0.5-18.1-1.3-27.2-2.2c-4.6-0.5-6-3.1-5.2-7.7
				c5.5-29.7,15.4-57.9,30.8-83.9c19.5-33,45.1-61.9,75.5-85.1C378.4,69.4,379.1,68.6,379.9,67.8"/>
			<path id="Path_2" class="st1" d="M214.2,216.2c-15.9-40-42.2-70.5-79.4-91.6c1.1,1.2,2,2.5,3.2,3.6c29.1,29.1,48.9,63.1,55,104.3
				c1.2,7.9-0.1,10-8,10.9c-19.7,2.3-38-1.9-53.7-14c-16.8-13-32.8-26.8-48.8-40.8c-6.3-5.5-5.8-7.3,0-13.5c2.1-2.4,4.5-4.6,7.1-6.4
				c4.7-2.9,4.5-5.6,1.4-9.9c-15.1-21-26.9-44.2-35-68.8c-2.8-8.3-2.4-9,6.2-9.9c38.1-4.3,73.1,4.3,104.8,25.9
				c2.8,1.9,5.6,3.9,9,6.4c1.5-4.1,2.6-7.6,4-11.1c1.6-3.7,3.8-4.9,7.2-1.6c29.2,29.1,41.6,74.4,28.9,114.6
				C216,214.6,215.6,214.9,214.2,216.2"/>
		</g>
	</g>
</g>
<g>
	<path class="st1" d="M2.1,347.7c-0.6,0-1.1-0.2-1.5-0.5S0,346.5,0,346v-46.9c0-0.6,0.2-1,0.7-1.3c0.4-0.3,0.9-0.4,1.4-0.4h11.3
		c2.6,0,4.9,0.3,7.1,0.9c2.1,0.6,3.8,1.7,5.1,3.4c1.3,1.7,1.9,4.2,1.9,7.4c0,2.9-0.5,5.3-1.6,7.3s-2.5,3.3-4.2,4.1
		c1.4,0.6,2.7,1.3,3.7,2.3c1.1,1,1.9,2.2,2.5,3.7s0.9,3.5,0.9,5.9v1.2c0,3.5-0.6,6.3-1.8,8.3c-1.2,2.1-2.8,3.6-4.9,4.5
		s-4.4,1.4-6.9,1.4L2.1,347.7L2.1,347.7z M4.6,318.4h9c3.2,0,5.6-0.7,7.1-2s2.3-3.6,2.3-6.9c0-2.2-0.4-3.8-1.2-5
		c-0.8-1.1-2-1.9-3.4-2.4c-1.4-0.4-3.1-0.7-5-0.7H4.6V318.4z M4.6,343.5h9.9c3,0,5.3-0.8,7.1-2.4c1.7-1.6,2.6-4.2,2.6-7.8v-1.2
		c0-3.6-0.9-6.1-2.6-7.5s-4.1-2.2-7.1-2.2H4.6V343.5z"/>
	<path class="st1" d="M39.2,347.7c-0.5,0-1-0.1-1.4-0.4s-0.7-0.7-0.7-1.3v-47c0-0.6,0.2-1,0.7-1.3s1-0.4,1.6-0.4s1.1,0.1,1.6,0.4
		s0.7,0.7,0.7,1.3v44.5h19.7c0.6,0,0.9,0.2,1.2,0.7c0.2,0.4,0.3,0.9,0.3,1.4c0,0.6-0.1,1-0.3,1.5c-0.2,0.4-0.6,0.7-1.2,0.7H39.2
		V347.7z"/>
	<path class="st1" d="M81.4,348.1c-2.7,0-5.1-0.5-7.2-1.4c-2.2-1-3.9-2.5-5.2-4.7c-1.3-2.2-1.9-5-1.9-8.6V312c0-3.6,0.6-6.5,1.9-8.6
		c1.3-2.2,3-3.7,5.2-4.7s4.6-1.4,7.2-1.4c2.7,0,5.1,0.5,7.3,1.4c2.2,1,3.9,2.5,5.2,4.7c1.3,2.2,1.9,5,1.9,8.6v21.3
		c0,3.6-0.6,6.5-1.9,8.6c-1.3,2.2-3,3.7-5.2,4.7C86.6,347.6,84.1,348.1,81.4,348.1z M81.4,343.9c3.1,0,5.5-0.8,7.2-2.6
		c1.7-1.7,2.6-4.4,2.6-8V312c0-3.6-0.9-6.3-2.6-8s-4.1-2.6-7.2-2.6s-5.5,0.9-7.2,2.6s-2.6,4.4-2.6,8v21.3c0,3.6,0.9,6.3,2.6,8
		C76,343,78.4,343.9,81.4,343.9z"/>
	<path class="st1" d="M108.1,347.7c-0.6,0-1.1-0.1-1.6-0.4s-0.7-0.7-0.7-1.3v-46.4c0-0.8,0.2-1.4,0.7-1.7c0.5-0.3,1-0.5,1.6-0.5
		s1,0.1,1.5,0.4c0.4,0.3,0.8,0.7,1.2,1.2c0.4,0.5,0.7,1,1,1.6l11.9,22.8l11.8-22.8c0.4-0.6,0.7-1.1,1.1-1.6c0.3-0.5,0.7-0.9,1.2-1.2
		c0.5-0.3,0.9-0.4,1.4-0.4c0.6,0,1.2,0.2,1.6,0.5c0.4,0.3,0.7,0.9,0.7,1.7V346c0,0.6-0.2,1-0.7,1.3s-1,0.4-1.6,0.4s-1.1-0.1-1.6-0.4
		s-0.7-0.7-0.7-1.3v-38.8l-11.4,21.7c-0.3,0.6-0.6,0.9-0.9,1.2c-0.3,0.2-0.6,0.3-1,0.3c-0.3,0-0.6-0.1-0.9-0.3
		c-0.3-0.2-0.6-0.6-1-1.2L110.3,307v38.9c0,0.6-0.2,1-0.7,1.3C109.1,347.5,108.6,347.7,108.1,347.7z"/>
	<path class="st1" d="M163.2,348.2c-2.9,0-5.5-0.4-7.6-1.3s-3.7-1.9-4.9-3.1c-1.1-1.2-1.7-2.2-1.7-3c0-0.4,0.1-0.8,0.3-1.2
		c0.2-0.4,0.5-0.7,0.8-1s0.6-0.4,1-0.4c0.5,0,0.9,0.3,1.4,0.9s1.1,1.2,1.9,2c0.8,0.8,1.9,1.4,3.2,2s3.1,0.9,5.2,0.9
		c2.2,0,4-0.4,5.5-1.1s2.7-1.8,3.5-3.2c0.8-1.4,1.2-3.2,1.2-5.3c0-2.2-0.4-4-1.2-5.3s-1.9-2.4-3.3-3.3c-1.4-0.9-2.8-1.6-4.4-2.2
		c-1.6-0.6-3.2-1.2-4.9-1.9c-1.6-0.6-3.1-1.4-4.5-2.4c-1.4-0.9-2.5-2.2-3.3-3.7s-1.2-3.5-1.2-5.9c0-2.5,0.5-4.5,1.4-6.2
		c0.9-1.6,2.1-2.9,3.6-3.8c1.4-0.9,3-1.6,4.7-2s3.4-0.6,5-0.6c1.3,0,2.6,0.1,4,0.3c1.4,0.2,2.6,0.5,3.8,0.9c1.1,0.4,2.1,0.8,2.8,1.3
		s1.1,1.1,1.1,1.8c0,0.3-0.1,0.6-0.2,1c-0.2,0.4-0.4,0.7-0.7,1.1c-0.3,0.3-0.6,0.5-1.1,0.5c-0.4,0-1-0.2-1.7-0.7
		c-0.7-0.4-1.7-0.9-3-1.3s-2.9-0.7-4.9-0.7c-1.7,0-3.3,0.2-4.8,0.7s-2.8,1.3-3.8,2.4c-1,1.2-1.4,2.8-1.4,4.8c0,1.8,0.4,3.3,1.3,4.4
		c0.8,1.1,2,2,3.3,2.7c1.4,0.7,2.8,1.3,4.4,1.9c1.6,0.6,3.2,1.2,4.9,1.9c1.6,0.7,3.1,1.6,4.5,2.7s2.4,2.5,3.3,4.2
		c0.8,1.7,1.2,4,1.2,6.8c0,3.3-0.6,5.9-1.9,8c-1.2,2.1-3,3.6-5.1,4.7C168.6,347.6,166.1,348.2,163.2,348.2z"/>
	<path class="st1" d="M196.9,347.7c-0.6,0-1.1-0.1-1.6-0.4s-0.7-0.7-0.7-1.3v-44.3H183c-0.6,0-1-0.2-1.3-0.7
		c-0.3-0.4-0.5-0.9-0.5-1.5s0.2-1,0.5-1.5c0.3-0.4,0.8-0.7,1.3-0.7h27.7c0.6,0,1,0.2,1.3,0.7c0.3,0.4,0.4,0.9,0.4,1.4
		c0,0.6-0.1,1.1-0.4,1.5c-0.3,0.5-0.7,0.7-1.3,0.7h-11.5v44.3c0,0.6-0.2,1-0.7,1.3C197.9,347.5,197.4,347.7,196.9,347.7z"/>
	<path class="st1" d="M220.6,347.7c-0.5,0-1-0.1-1.4-0.4s-0.7-0.7-0.7-1.3v-46.8c0-0.6,0.2-1,0.7-1.3c0.4-0.3,0.9-0.4,1.4-0.4h24.5
		c0.6,0,1,0.2,1.3,0.7c0.3,0.4,0.4,0.9,0.4,1.4c0,0.6-0.1,1-0.4,1.5c-0.3,0.4-0.7,0.7-1.3,0.7H223v19h10.8c0.6,0,1,0.2,1.3,0.6
		s0.4,0.9,0.4,1.4s-0.1,0.9-0.4,1.3c-0.3,0.4-0.7,0.6-1.3,0.6H223v19h22.1c0.6,0,1,0.2,1.3,0.6s0.4,0.9,0.4,1.5c0,0.5-0.1,1-0.4,1.4
		c-0.3,0.4-0.7,0.7-1.3,0.7h-24.5V347.7z"/>
	<path class="st1" d="M279.9,347.8c-0.5,0-1-0.3-1.4-0.8s-0.8-1.1-1-1.6l-10.6-20.7h-8.8v21.2c0,0.6-0.2,1-0.7,1.3s-1,0.4-1.6,0.4
		s-1.1-0.1-1.6-0.4s-0.7-0.7-0.7-1.3V299c0-0.5,0.2-0.9,0.5-1.2c0.3-0.3,0.7-0.5,1.2-0.6h12.2c2.7,0,5.2,0.4,7.4,1.2
		c2.3,0.8,4.1,2.2,5.4,4.2c1.4,2,2,4.7,2,8.1c0,2.9-0.5,5.2-1.4,7s-2.2,3.3-3.9,4.2c-1.6,1-3.5,1.7-5.5,2l10.6,20.4
		c0.1,0.1,0.2,0.3,0.2,0.4c0,0.2,0,0.3,0,0.4c0,0.4-0.1,0.7-0.4,1.1s-0.6,0.7-1,0.9C280.7,347.7,280.3,347.8,279.9,347.8z
		 M258.1,320.8h9.4c3.1,0,5.6-0.7,7.5-2.2s2.9-4,2.9-7.4c0-3.5-1-6-2.9-7.4c-1.9-1.5-4.4-2.2-7.5-2.2h-9.4V320.8z"/>
	<path class="st1" d="M301.3,348.2c-2.9,0-5.5-0.4-7.6-1.3s-3.7-1.9-4.9-3.1c-1.1-1.2-1.7-2.2-1.7-3c0-0.4,0.1-0.8,0.3-1.2
		c0.2-0.4,0.5-0.7,0.8-1s0.6-0.4,1-0.4c0.5,0,0.9,0.3,1.4,0.9s1.1,1.2,1.9,2s1.9,1.4,3.2,2c1.3,0.6,3.1,0.9,5.2,0.9
		c2.2,0,4-0.4,5.5-1.1s2.7-1.8,3.5-3.2c0.8-1.4,1.2-3.2,1.2-5.3c0-2.2-0.4-4-1.2-5.3c-0.8-1.3-1.9-2.4-3.3-3.3s-2.8-1.6-4.4-2.2
		s-3.2-1.2-4.9-1.9c-1.6-0.6-3.1-1.4-4.5-2.4c-1.4-0.9-2.5-2.2-3.3-3.7s-1.2-3.5-1.2-5.9c0-2.5,0.5-4.5,1.4-6.2
		c0.9-1.6,2.1-2.9,3.6-3.8c1.4-0.9,3-1.6,4.7-2s3.4-0.6,5-0.6c1.3,0,2.6,0.1,4,0.3c1.4,0.2,2.6,0.5,3.8,0.9c1.1,0.4,2.1,0.8,2.8,1.3
		c0.7,0.5,1.1,1.1,1.1,1.8c0,0.3-0.1,0.6-0.2,1c-0.2,0.4-0.4,0.7-0.7,1.1c-0.3,0.3-0.6,0.5-1.1,0.5c-0.4,0-1-0.2-1.7-0.7
		c-0.7-0.4-1.7-0.9-3-1.3s-2.9-0.7-4.9-0.7c-1.7,0-3.3,0.2-4.8,0.7s-2.8,1.3-3.8,2.4c-1,1.2-1.4,2.8-1.4,4.8c0,1.8,0.4,3.3,1.3,4.4
		c0.8,1.1,2,2,3.3,2.7c1.4,0.7,2.8,1.3,4.4,1.9s3.2,1.2,4.9,1.9c1.6,0.7,3.1,1.6,4.5,2.7s2.4,2.5,3.3,4.2c0.8,1.7,1.2,4,1.2,6.8
		c0,3.3-0.6,5.9-1.9,8c-1.2,2.1-3,3.6-5.1,4.7C306.7,347.6,304.2,348.2,301.3,348.2z"/>
	<path class="st1" d="M324.9,349.7c-0.5,0-0.9-0.2-1.3-0.5c-0.3-0.3-0.5-0.7-0.5-1.2c0-0.3,0-0.6,0.1-0.8l26.3-51.5
		c0.3-0.6,0.8-0.8,1.4-0.8c0.5,0,0.9,0.2,1.3,0.6s0.6,0.8,0.6,1.4c0,0.3-0.1,0.6-0.2,0.9l-26.1,51c-0.2,0.3-0.4,0.6-0.7,0.8
		C325.6,349.6,325.2,349.7,324.9,349.7z M337.8,348.1c-2.7,0-5.1-0.5-7.2-1.4c-2.2-1-3.9-2.5-5.2-4.7c-1.3-2.2-1.9-5-1.9-8.6V312
		c0-3.6,0.6-6.5,1.9-8.6c1.3-2.2,3-3.7,5.2-4.7s4.6-1.4,7.2-1.4c2.7,0,5.1,0.5,7.3,1.4c2.2,1,3.9,2.5,5.2,4.7c1.3,2.2,1.9,5,1.9,8.6
		v21.3c0,3.6-0.6,6.5-1.9,8.6c-1.3,2.2-3,3.7-5.2,4.7C343,347.6,340.5,348.1,337.8,348.1z M337.8,343.9c3.1,0,5.5-0.8,7.2-2.6
		c1.7-1.7,2.6-4.4,2.6-8V312c0-3.6-0.9-6.3-2.6-8s-4.1-2.6-7.2-2.6s-5.5,0.9-7.2,2.6s-2.6,4.4-2.6,8v21.3c0,3.6,0.9,6.3,2.6,8
		C332.4,343,334.8,343.9,337.8,343.9z"/>
	<path class="st1" d="M373.5,348.2c-2.9,0-5.5-0.4-7.6-1.3s-3.7-1.9-4.9-3.1c-1.1-1.2-1.7-2.2-1.7-3c0-0.4,0.1-0.8,0.3-1.2
		c0.2-0.4,0.5-0.7,0.8-1s0.6-0.4,1-0.4c0.5,0,0.9,0.3,1.4,0.9s1.1,1.2,1.9,2s1.9,1.4,3.2,2c1.3,0.6,3.1,0.9,5.2,0.9
		c2.2,0,4-0.4,5.5-1.1s2.7-1.8,3.5-3.2c0.8-1.4,1.2-3.2,1.2-5.3c0-2.2-0.4-4-1.2-5.3c-0.8-1.3-1.9-2.4-3.3-3.3s-2.8-1.6-4.4-2.2
		s-3.2-1.2-4.9-1.9c-1.6-0.6-3.1-1.4-4.5-2.4c-1.4-0.9-2.5-2.2-3.3-3.7s-1.2-3.5-1.2-5.9c0-2.5,0.5-4.5,1.4-6.2
		c0.9-1.6,2.1-2.9,3.6-3.8c1.4-0.9,3-1.6,4.7-2s3.4-0.6,5-0.6c1.3,0,2.6,0.1,4,0.3c1.4,0.2,2.6,0.5,3.8,0.9c1.1,0.4,2.1,0.8,2.8,1.3
		c0.7,0.5,1.1,1.1,1.1,1.8c0,0.3-0.1,0.6-0.2,1c-0.2,0.4-0.4,0.7-0.7,1.1c-0.3,0.3-0.6,0.5-1.1,0.5c-0.4,0-1-0.2-1.7-0.7
		c-0.7-0.4-1.7-0.9-3-1.3s-2.9-0.7-4.9-0.7c-1.7,0-3.3,0.2-4.8,0.7s-2.8,1.3-3.8,2.4c-1,1.2-1.4,2.8-1.4,4.8c0,1.8,0.4,3.3,1.3,4.4
		s2,2,3.3,2.7c1.4,0.7,2.8,1.3,4.4,1.9s3.2,1.2,4.9,1.9c1.6,0.7,3.1,1.6,4.5,2.7s2.4,2.5,3.3,4.2c0.8,1.7,1.2,4,1.2,6.8
		c0,3.3-0.6,5.9-1.9,8c-1.2,2.1-3,3.6-5.1,4.7C378.9,347.6,376.4,348.2,373.5,348.2z"/>
	<path class="st1" d="M407.2,347.7c-0.6,0-1.1-0.1-1.6-0.4s-0.7-0.7-0.7-1.3v-44.3h-11.6c-0.6,0-1-0.2-1.3-0.7
		c-0.3-0.4-0.5-0.9-0.5-1.5s0.2-1,0.5-1.5c0.3-0.4,0.8-0.7,1.3-0.7H421c0.6,0,1,0.2,1.3,0.7c0.3,0.4,0.4,0.9,0.4,1.4
		c0,0.6-0.1,1.1-0.4,1.5c-0.3,0.5-0.7,0.7-1.3,0.7h-11.5v44.3c0,0.6-0.2,1-0.7,1.3S407.7,347.7,407.2,347.7z"/>
	<path class="st1" d="M455.2,347.8c-0.5,0-1-0.3-1.4-0.8s-0.8-1.1-1-1.6l-10.6-20.7h-8.8v21.2c0,0.6-0.2,1-0.7,1.3s-1,0.4-1.6,0.4
		s-1.1-0.1-1.6-0.4s-0.7-0.7-0.7-1.3V299c0-0.5,0.2-0.9,0.5-1.2c0.3-0.3,0.7-0.5,1.2-0.6h12.2c2.7,0,5.2,0.4,7.4,1.2
		c2.3,0.8,4.1,2.2,5.4,4.2c1.4,2,2,4.7,2,8.1c0,2.9-0.5,5.2-1.4,7s-2.2,3.3-3.9,4.2c-1.6,1-3.5,1.7-5.5,2l10.6,20.4
		c0.1,0.1,0.2,0.3,0.2,0.4c0,0.2,0,0.3,0,0.4c0,0.4-0.1,0.7-0.4,1.1s-0.6,0.7-1,0.9C456,347.7,455.6,347.8,455.2,347.8z
		 M433.4,320.8h9.4c3.1,0,5.6-0.7,7.5-2.2s2.9-4,2.9-7.4c0-3.5-1-6-2.9-7.4c-1.9-1.5-4.4-2.2-7.5-2.2h-9.4V320.8z"/>
	<path class="st1" d="M467.3,347.7c-0.5,0-1-0.1-1.4-0.4s-0.7-0.7-0.7-1.3v-46.8c0-0.6,0.2-1,0.7-1.3c0.4-0.3,0.9-0.4,1.4-0.4h24.5
		c0.6,0,1,0.2,1.3,0.7c0.3,0.4,0.4,0.9,0.4,1.4c0,0.6-0.2,1-0.4,1.5c-0.3,0.4-0.7,0.7-1.3,0.7h-22.1v19h10.8c0.6,0,1,0.2,1.3,0.6
		s0.4,0.9,0.4,1.4s-0.1,0.9-0.4,1.3s-0.7,0.6-1.3,0.6h-10.8v19h22.1c0.6,0,1,0.2,1.3,0.6s0.4,0.9,0.4,1.5c0,0.5-0.1,1-0.4,1.4
		s-0.7,0.7-1.3,0.7h-24.5V347.7z"/>
	<path class="st1" d="M502.6,347.7c-0.6,0-1.1-0.1-1.6-0.4s-0.7-0.7-0.7-1.3v-47c0-0.6,0.2-1.1,0.7-1.3c0.5-0.3,1-0.4,1.6-0.4
		s1,0.1,1.4,0.4s0.8,0.7,1.2,1.2c0.4,0.5,0.7,1,1,1.6l18.6,36.6V299c0-0.6,0.2-1,0.7-1.3s1-0.4,1.6-0.4s1.1,0.1,1.6,0.4
		s0.7,0.7,0.7,1.3v46.9c0,0.6-0.2,1-0.7,1.3s-1,0.4-1.6,0.4s-1.2-0.3-1.8-0.8c-0.5-0.5-1-1.1-1.3-1.8l-19.2-37.3v38.1
		c0,0.6-0.2,1-0.7,1.3C503.6,347.5,503.1,347.7,502.6,347.7z"/>
	<path class="st1" d="M541.9,347.7c-0.5,0-1-0.1-1.4-0.4s-0.7-0.7-0.7-1.3v-46.8c0-0.6,0.2-1,0.7-1.3c0.4-0.3,0.9-0.4,1.4-0.4h24.5
		c0.6,0,1,0.2,1.3,0.7c0.3,0.4,0.4,0.9,0.4,1.4c0,0.6-0.2,1-0.4,1.5c-0.3,0.4-0.7,0.7-1.3,0.7h-22.1v19h10.8c0.6,0,1,0.2,1.3,0.6
		s0.4,0.9,0.4,1.4s-0.1,0.9-0.4,1.3c-0.3,0.4-0.7,0.6-1.3,0.6h-10.8v19h22.1c0.6,0,1,0.2,1.3,0.6s0.4,0.9,0.4,1.5
		c0,0.5-0.1,1-0.4,1.4c-0.3,0.4-0.7,0.7-1.3,0.7h-24.5V347.7z"/>
</g>
</svg>
