<?xml version="1.0" encoding="utf-8"?>
<!-- Generator: Adobe Illustrator 26.3.1, SVG Export Plug-In . SVG Version: 6.00 Build 0)  -->
<svg version="1.1" id="Layer_1" xmlns="http://www.w3.org/2000/svg" xmlns:xlink="http://www.w3.org/1999/xlink" x="0px" y="0px"
	 viewBox="0 0 200 200" style="enable-background:new 0 0 200 200;" xml:space="preserve">
<style type="text/css">
	.st0{fill:#636270;}
	.st1{fill:#EFEFEF;}
</style>
<rect id="Rectangle_69" class="st0" width="200" height="200"/>
<path id="Search" class="st1" d="M94.4,51.1c-23.9,0-43.4,19.3-43.4,43.2c0,23.9,19.3,43.4,43.2,43.4c10,0,19.7-3.4,27.4-9.7
	l19.5,19.5c1.8,1.7,4.6,1.7,6.3,0c1.7-1.7,1.8-4.5,0-6.3c0,0,0,0,0,0L128,121.7c15.1-18.6,12.3-45.8-6.3-60.9
	C114,54.5,104.4,51.1,94.4,51.1z M94.4,60.1c19,0,34.4,15.4,34.4,34.4s-15.4,34.4-34.4,34.4s-34.4-15.4-34.4-34.4
	c0-18.9,15.3-34.3,34.2-34.4C94.3,60.1,94.4,60.1,94.4,60.1z"/>
</svg>
