<?xml version="1.0" encoding="utf-8"?>
<!-- Generator: Adobe Illustrator 26.3.1, SVG Export Plug-In . SVG Version: 6.00 Build 0)  -->
<svg version="1.1" id="Layer_1" xmlns="http://www.w3.org/2000/svg" xmlns:xlink="http://www.w3.org/1999/xlink" x="0px" y="0px"
	 viewBox="0 0 200 200" style="enable-background:new 0 0 200 200;" xml:space="preserve">
<style type="text/css">
	.st0{fill:#636270;}
	.st1{fill-rule:evenodd;clip-rule:evenodd;fill:#EFEFEF;}
</style>
<rect id="Rectangle_68" class="st0" width="200" height="200"/>
<path id="Log-in" class="st1" d="M154.9,158.8c-0.7-29.8-25.4-53.4-55.2-52.7c-28.8,0.7-52,23.9-52.7,52.7h8.3
	c0.6-25.2,21.5-45.2,46.7-44.6c24.4,0.6,44,20.2,44.6,44.6H154.9z M101,98c15.7-0.3,28.1-13.3,27.8-29c-0.3-15.7-13.3-28.1-29-27.8
	c-15.4,0.3-27.8,13-27.8,28.4C72.1,85.4,85.1,98.1,101,98z M101,89.9c-11.2-0.3-20.1-9.5-19.8-20.7c0.3-11.2,9.5-20.1,20.7-19.8
	c11,0.2,19.8,9.3,19.8,20.3C121.6,80.9,112.3,90,101,89.9C101,89.9,101,89.9,101,89.9z"/>
</svg>
